<?xml version="1.0" encoding="iso-8859-1"?>
<!DOCTYPE svg PUBLIC "-//W3C//DTD SVG 1.1//EN" "http://www.w3.org/Graphics/SVG/1.1/DTD/svg11.dtd">
<svg fill="#8B5E3C" version="1.1" xmlns="http://www.w3.org/2000/svg" width="800px" height="800px" viewBox="0 0 247.632 247.633" xml:space="preserve">
<g><path d="M245.857,165.604c-18.749-3.878-28.372-8.643-33.248-12.212c7.081,0.289,14.646-3.115,15.096-3.328c1.017-0.467,1.52-1.62,1.177-2.678c-0.343-1.063-1.407-1.708-2.53-1.495c-11.562,2.169-18.389-8.204-22.916-15.084c-0.573-0.887-1.105-1.697-1.613-2.418c-11.143-16.106-27.45-16.674-32.226-16.456c-11.674-15.368-38.231-15.761-39.301-15.761c-12.682-0.617-16.453-3.203-17.307-3.934c1.436-13.754-3.142-24.077-7.306-30.372c0.127,0.077,0.254,0.156,0.381,0.248c0.757,0.502,1.773,0.476,2.518-0.068c0.745-0.538,1.079-1.478,0.836-2.374c-2.536-9.306-11.786-17.534-18.562-22.502c0.889,0.145,1.832-0.284,2.293-1.108c0.491-0.884,0.325-1.974-0.393-2.669c-15.241-14.685-33.103-12.619-38.845-11.47c-2.5-3.842-8.99-8.021-11.222-9.386c-0.958-0.588-2.27-0.449-2.956,0.434c-0.594,0.75-0.671,1.717-0.192,2.482c-0.813-0.414-1.8-0.292-2.482,0.325c-0.704,0.629-0.925,1.64-0.556,2.518c1.259,2.929,0.493,9.315-0.021,12.215c-5.391,6.046-10.887,22.357-11.73,24.914l-2.16,3.153c-1.977,2.82-2.669,6.8-1.814,10.403c0.611,2.574,1.906,4.51,3.656,5.441c4.25,2.293,7.849,2.678,10.708,1.159c2.733-1.46,3.91-4.279,4.412-6.109c6.978-1.525,12.383-7.347,14.75-10.314c1.809,1.421,2.988,3.431,3.582,6.103c1.895,8.538-3.026,20.439-6.312,24.701c-6.076,7.885-6.682,21.412-6.694,26.128c-8.116,2.409-17.984-0.721-18.406-0.842c-6.348-1.011-11.209-0.207-14.375,2.361c-3.124,2.53-3.366,5.796-3.36,5.926c-1.59,10.326-6.741,16.633-6.789,16.692c-0.121,0.142-0.219,0.312-0.298,0.467c-3.854,8.127,0.115,17.277,1.12,19.346l1.103,11.537c0.727,2.59,1.977,4.327,3.727,5.16c2.101,1,4.001,0.23,4.318,0.077c2.935-1.46,4.871-3.683,5.766-6.614c2.016-6.59-2.287-14.333-2.474-14.658c-0.271-0.479-0.709-0.84-1.235-1.011l-1.017-0.325c0.446-12.986,3.893-18.619,6.774-21.072c1.052-0.893,2.075-1.383,2.988-1.708c-0.712,1.696-1.271,3.534-1.584,4.788c-0.177,4.374-1.437,8.979-1.761,10.096c-4.794,7.949-0.721,13.21-0.547,13.435c0.139,0.16,0.298,0.313,0.473,0.426c2.193,1.507,4.001,5.485,4.643,7.211c0.624,7.962,6.041,10.994,6.245,11.106c1.02,0.567,1.909,0.763,2.66,0.763c0.984,0,1.729-0.337,2.185-0.627c3.171-2.074,2.964-8.417,2.722-10.657c0.357-4.007-0.494-7.039-2.53-9.008c-1.093-1.069-2.323-1.625-3.408-1.903c0.225-2.477-0.186-5.101-0.325-5.869c-2.985-11.964,5.078-14.594,6.035-14.865c0.127-0.03,0.168-0.166,0.284-0.219c6.682,1.844,15.465,2.866,25.186,0.526c24.198,25.581,48.122,26.977,52.96,26.977c0.053,0,0.053,0,0.101,0c0.479,1.017,0.958,1.998,1.413,2.914c2.79,5.573,9.121,15.314,9.345,15.669c4.994,8.328,5.278,13.021,4.634,15.504c-0.473,1.826-1.495,2.513-1.454,2.513l0,0c-9.3,3.818-13.21,7.849-14.706,9.889c-11.934,0.076-15.56,4.22-15.971,4.746c-2.199,2.908-4.504,6.572-2.805,9.126c0.254,0.384,0.559,0.68,0.893,0.91c-1.915,2.151-1.788,4.008-1.333,5.178c1.531,3.996,9.153,5.007,11.003,5.143c0.564,0.177,1.132,0.254,1.702,0.254c0.955,0,1.9-0.248,2.79-0.738c2.813-1.555,4.522-5.314,5.296-7.466c3.697-0.49,7.51-2.37,7.693-2.453c0.44-0.225,0.804-0.597,1.011-1.04c4.687-9.954,15.568-15.273,17.431-16.124c5.166-0.621,8.843-2.536,10.935-5.71c3.009-4.587,1.378-9.966,1.206-10.409c-6.012-13.618-1.986-20.463-1.135-21.681c23.768-16.042,24.293-32.905,23.53-39.053c1.188-0.083,2.158,0.166,2.927,0.745c3.18,2.364,3.339,10.001,3.439,15.066c0.035,1.809,0.071,3.393,0.207,4.533c1.135,9.487,5.255,16.391,12.206,20.528c18.004,10.675,48.622-1.3,49.922-1.814c0.904-0.372,1.478-1.271,1.389-2.252C247.517,166.602,246.808,165.81,245.857,165.604z"/></g>
</svg>
